# Blender v3.2.0 OBJ File: ''
# www.blender.org
mtllib floor.mtl
o Plane
v -4.328536 0.000000 4.328536
v 4.328536 0.000000 4.328536
v -4.328536 0.000000 -4.328536
v 4.328536 0.000000 -4.328536
v -4.328536 0.000000 0.000000
v 0.000000 0.000000 4.328536
v 4.328536 0.000000 0.000000
v 0.000000 0.000000 -4.328536
v 0.000000 0.000000 0.000000
v -4.328536 0.000000 2.164268
v 2.164268 0.000000 4.328536
v 4.328536 0.000000 -2.164268
v -2.164268 0.000000 -4.328536
v -4.328536 0.000000 -2.164268
v -2.164268 0.000000 4.328536
v 4.328536 0.000000 2.164268
v 2.164268 0.000000 -4.328536
v 0.000000 0.000000 -2.164268
v 0.000000 0.000000 2.164268
v -2.164268 0.000000 0.000000
v 2.164268 0.000000 0.000000
v 2.164268 0.000000 2.164268
v -2.164268 0.000000 2.164268
v -2.164268 0.000000 -2.164268
v 2.164268 0.000000 -2.164268
v -4.328536 0.000000 3.246402
v 3.246402 0.000000 4.328536
v 4.328536 0.000000 -3.246402
v -3.246402 0.000000 -4.328536
v -4.328536 0.000000 -1.082134
v -1.082134 0.000000 4.328536
v 4.328536 0.000000 1.082134
v 1.082134 0.000000 -4.328536
v 0.000000 0.000000 -3.246402
v 0.000000 0.000000 1.082134
v -3.246402 0.000000 0.000000
v 1.082134 0.000000 0.000000
v -4.328536 0.000000 1.082134
v 1.082134 0.000000 4.328536
v 4.328536 0.000000 -1.082134
v -1.082134 0.000000 -4.328536
v -4.328536 0.000000 -3.246402
v -3.246402 0.000000 4.328536
v 4.328536 0.000000 3.246402
v 3.246402 0.000000 -4.328536
v 0.000000 0.000000 -1.082134
v 0.000000 0.000000 3.246402
v -1.082134 0.000000 0.000000
v 3.246402 0.000000 0.000000
v 2.164268 0.000000 1.082134
v 2.164268 0.000000 3.246402
v 1.082134 0.000000 2.164268
v 3.246402 0.000000 2.164268
v -2.164268 0.000000 1.082134
v -2.164268 0.000000 3.246402
v -3.246402 0.000000 2.164268
v -1.082134 0.000000 2.164268
v -2.164268 0.000000 -3.246402
v -2.164268 0.000000 -1.082134
v -3.246402 0.000000 -2.164268
v -1.082134 0.000000 -2.164268
v 2.164268 0.000000 -3.246402
v 2.164268 0.000000 -1.082134
v 1.082134 0.000000 -2.164268
v 3.246402 0.000000 -2.164268
v 3.246402 0.000000 -1.082134
v 1.082134 0.000000 -1.082134
v 1.082134 0.000000 -3.246402
v -1.082134 0.000000 -1.082134
v -3.246402 0.000000 -1.082134
v -3.246402 0.000000 -3.246402
v -1.082134 0.000000 3.246402
v -3.246402 0.000000 3.246402
v -3.246402 0.000000 1.082134
v 3.246402 0.000000 3.246402
v 1.082134 0.000000 3.246402
v 1.082134 0.000000 1.082134
v 3.246402 0.000000 1.082134
v -1.082134 0.000000 1.082134
v -1.082134 0.000000 -3.246402
v 3.246402 0.000000 -3.246402
vt 0.016327 0.410106
vt 0.597006 0.410106
vt 0.597006 0.990785
vt 0.016327 0.990785
vt 0.211974 0.211974
vt 0.788026 0.211974
vt 0.788026 0.788026
vt 0.211974 0.788026
vt 0.067427 0.327404
vt 0.676389 0.327404
vt 0.676389 0.936366
vt 0.067427 0.936366
vt 0.261969 0.019608
vt 0.815507 0.019608
vt 0.815507 0.573146
vt 0.261969 0.573146
vt 0.389868 0.357963
vt 0.937712 0.357963
vt 0.937712 0.905807
vt 0.389868 0.905807
vt 0.074943 0.044502
vt 0.677273 0.044502
vt 0.677273 0.646832
vt 0.074943 0.646832
vt 0.018636 0.113800
vt 0.572173 0.113800
vt 0.572173 0.667338
vt 0.018636 0.667338
vt 0.275532 0.231547
vt 0.913456 0.231547
vt 0.913456 0.869471
vt 0.275532 0.869471
vt 0.065421 0.362508
vt 0.615399 0.362508
vt 0.615399 0.912486
vt 0.065421 0.912486
vt 0.393205 0.046353
vt 0.963772 0.046353
vt 0.963772 0.616920
vt 0.393205 0.616920
vt 0.120602 0.265048
vt 0.820602 0.265048
vt 0.820602 0.965048
vt 0.120602 0.965048
vt 0.356914 0.363551
vt 0.932867 0.363551
vt 0.932867 0.939504
vt 0.356914 0.939504
vt 0.131101 0.251018
vt 0.831101 0.251018
vt 0.831101 0.951018
vt 0.131101 0.951018
vt 0.219865 0.028365
vt 0.792734 0.028365
vt 0.792734 0.601235
vt 0.219865 0.601235
vt 0.029445 0.021972
vt 0.558981 0.021972
vt 0.558981 0.551507
vt 0.029445 0.551507
vt 0.416969 0.306262
vt 0.970507 0.306262
vt 0.970507 0.859800
vt 0.416969 0.859800
vt 0.113831 0.048105
vt 0.667369 0.048105
vt 0.667369 0.601642
vt 0.113831 0.601642
vt 0.448803 0.029580
vt 0.962356 0.029580
vt 0.962356 0.543132
vt 0.448803 0.543132
vt 0.091969 0.132868
vt 0.645507 0.132868
vt 0.645507 0.686406
vt 0.091969 0.686406
vt 0.349336 0.094990
vt 0.923647 0.094990
vt 0.923647 0.669301
vt 0.349336 0.669301
vt 0.400790 0.018890
vt 0.981386 0.018890
vt 0.981386 0.599486
vt 0.400790 0.599486
vt 0.104989 0.285040
vt 0.680824 0.285040
vt 0.680824 0.860875
vt 0.104989 0.860875
vt 0.455618 0.452592
vt 0.976955 0.452592
vt 0.976955 0.973929
vt 0.455618 0.973929
vt 0.226936 0.182152
vt 0.873857 0.182152
vt 0.873857 0.829073
vt 0.226936 0.829073
vt 0.065225 0.299222
vt 0.657592 0.299222
vt 0.657592 0.891590
vt 0.065225 0.891590
vt 0.072415 0.068641
vt 0.688200 0.068641
vt 0.688200 0.684426
vt 0.072415 0.684426
vt 0.358112 0.070837
vt 0.952668 0.070837
vt 0.952668 0.665393
vt 0.358112 0.665393
vt 0.202890 0.019790
vt 0.792910 0.019790
vt 0.792910 0.609810
vt 0.202890 0.609810
vt 0.234441 0.414047
vt 0.782358 0.414047
vt 0.782358 0.961965
vt 0.234441 0.961965
vt 0.145961 0.271359
vt 0.698649 0.271359
vt 0.698649 0.824047
vt 0.145961 0.824047
vt 0.024077 0.415770
vt 0.568549 0.415770
vt 0.568549 0.960242
vt 0.024077 0.960242
vt 0.137305 0.151817
vt 0.665308 0.151817
vt 0.665308 0.679820
vt 0.137305 0.679820
vt 0.444948 0.032200
vt 0.954027 0.032200
vt 0.954027 0.541279
vt 0.444948 0.541279
vt 0.479427 0.461665
vt 0.948946 0.461665
vt 0.948946 0.931184
vt 0.479427 0.931184
vt 0.338533 0.166919
vt 0.892453 0.166919
vt 0.892453 0.720839
vt 0.338533 0.720839
vt 0.064159 0.244210
vt 0.721654 0.244210
vt 0.721654 0.901705
vt 0.064159 0.901705
vt 0.053044 0.284960
vt 0.690772 0.284960
vt 0.690772 0.922688
vt 0.053044 0.922688
vt 0.450458 0.017417
vt 0.994714 0.017417
vt 0.994714 0.561674
vt 0.450458 0.561674
vt 0.105460 0.301660
vt 0.692952 0.301660
vt 0.692952 0.889152
vt 0.105460 0.889152
vt 0.390085 0.262105
vt 0.966893 0.262105
vt 0.966893 0.838913
vt 0.390085 0.838913
vt 0.369871 0.133049
vt 0.890512 0.133049
vt 0.890512 0.653690
vt 0.369871 0.653690
vt 0.003572 0.236007
vt 0.576455 0.236007
vt 0.576455 0.808890
vt 0.003572 0.808890
vt 0.343566 0.258978
vt 0.921017 0.258978
vt 0.921017 0.836428
vt 0.343566 0.836428
vt 0.071833 0.132550
vt 0.625371 0.132550
vt 0.625371 0.686088
vt 0.071833 0.686088
vt 0.036615 0.361342
vt 0.590153 0.361342
vt 0.590153 0.914879
vt 0.036615 0.914879
vt 0.226969 0.417021
vt 0.780507 0.417021
vt 0.780507 0.970558
vt 0.226969 0.970558
vt 0.414473 0.394479
vt 0.900508 0.394479
vt 0.900508 0.880514
vt 0.414473 0.880514
vt 0.367556 0.063426
vt 0.926426 0.063426
vt 0.926426 0.622296
vt 0.367556 0.622296
vt 0.042262 0.065062
vt 0.642757 0.065062
vt 0.642757 0.665557
vt 0.042262 0.665557
vt 0.162735 0.261541
vt 0.740671 0.261541
vt 0.740671 0.839477
vt 0.162735 0.839477
vt 0.088836 0.326364
vt 0.654980 0.326364
vt 0.654980 0.892509
vt 0.088836 0.892509
vt 0.358858 0.333959
vt 0.960322 0.333959
vt 0.960322 0.935423
vt 0.358858 0.935423
vt 0.067634 0.029997
vt 0.621171 0.029997
vt 0.621171 0.583534
vt 0.067634 0.583534
vt 0.376314 0.378716
vt 0.929852 0.378716
vt 0.929852 0.932253
vt 0.376314 0.932253
vt 0.183636 0.173608
vt 0.737173 0.173608
vt 0.737173 0.727146
vt 0.183636 0.727146
vt 0.073497 0.358710
vt 0.653520 0.358710
vt 0.653520 0.938733
vt 0.073497 0.938733
vt 0.334086 0.285326
vt 0.976695 0.285326
vt 0.976695 0.927935
vt 0.334086 0.927935
vt 0.331554 0.378832
vt 0.916230 0.378832
vt 0.916230 0.963508
vt 0.331554 0.963508
vt 0.074004 0.247737
vt 0.707609 0.247737
vt 0.707609 0.881342
vt 0.074004 0.881342
vt 0.307581 0.272127
vt 0.982200 0.272127
vt 0.982200 0.946746
vt 0.307581 0.946746
vt 0.464634 0.456665
vt 0.938541 0.456665
vt 0.938541 0.930571
vt 0.464634 0.930571
vt 0.013037 0.043763
vt 0.566575 0.043763
vt 0.566575 0.597301
vt 0.013037 0.597301
vt 0.298619 0.089428
vt 0.852157 0.089428
vt 0.852157 0.642965
vt 0.298619 0.642965
vt 0.615669 0.954373
vt 0.040998 0.954373
vt 0.040998 0.379703
vt 0.615669 0.379703
vn 0.0000 1.0000 0.0000
usemtl Material.001
s off
f 81/1/1 28/2/1 4/3/1 45/4/1
f 80/5/1 34/6/1 8/7/1 41/8/1
f 79/9/1 35/10/1 9/11/1 48/12/1
f 78/13/1 32/14/1 7/15/1 49/16/1
f 77/17/1 50/18/1 21/19/1 37/20/1
f 76/21/1 51/22/1 22/23/1 52/24/1
f 75/25/1 44/26/1 16/27/1 53/28/1
f 74/29/1 54/30/1 20/31/1 36/32/1
f 73/33/1 55/34/1 23/35/1 56/36/1
f 72/37/1 47/38/1 19/39/1 57/40/1
f 71/41/1 58/42/1 13/43/1 29/44/1
f 70/45/1 59/46/1 24/47/1 60/48/1
f 69/49/1 46/50/1 18/51/1 61/52/1
f 68/53/1 62/54/1 17/55/1 33/56/1
f 67/57/1 63/58/1 25/59/1 64/60/1
f 66/61/1 40/62/1 12/63/1 65/64/1
f 63/65/1 66/66/1 65/67/1 25/68/1
f 21/69/1 49/70/1 66/71/1 63/72/1
f 49/73/1 7/74/1 40/75/1 66/76/1
f 46/77/1 67/78/1 64/79/1 18/80/1
f 9/81/1 37/82/1 67/83/1 46/84/1
f 37/85/1 21/86/1 63/87/1 67/88/1
f 34/89/1 68/90/1 33/91/1 8/92/1
f 18/93/1 64/94/1 68/95/1 34/96/1
f 64/97/1 25/98/1 62/99/1 68/100/1
f 59/101/1 69/102/1 61/103/1 24/104/1
f 20/105/1 48/106/1 69/107/1 59/108/1
f 48/109/1 9/110/1 46/111/1 69/112/1
f 30/113/1 70/114/1 60/115/1 14/116/1
f 5/117/1 36/118/1 70/119/1 30/120/1
f 36/121/1 20/122/1 59/123/1 70/124/1
f 42/125/1 71/126/1 29/127/1 3/128/1
f 14/129/1 60/130/1 71/131/1 42/132/1
f 60/133/1 24/134/1 58/135/1 71/136/1
f 55/137/1 72/138/1 57/139/1 23/140/1
f 15/141/1 31/142/1 72/143/1 55/144/1
f 31/145/1 6/146/1 47/147/1 72/148/1
f 26/149/1 73/150/1 56/151/1 10/152/1
f 1/153/1 43/154/1 73/155/1 26/156/1
f 43/157/1 15/158/1 55/159/1 73/160/1
f 38/161/1 74/162/1 36/163/1 5/164/1
f 10/165/1 56/166/1 74/167/1 38/168/1
f 56/169/1 23/170/1 54/171/1 74/172/1
f 51/173/1 75/174/1 53/175/1 22/176/1
f 11/177/1 27/178/1 75/179/1 51/180/1
f 27/181/1 2/182/1 44/183/1 75/184/1
f 47/185/1 76/186/1 52/187/1 19/188/1
f 6/189/1 39/190/1 76/191/1 47/192/1
f 39/193/1 11/194/1 51/195/1 76/196/1
f 35/197/1 77/198/1 37/199/1 9/200/1
f 19/201/1 52/202/1 77/203/1 35/204/1
f 52/205/1 22/206/1 50/207/1 77/208/1
f 50/209/1 78/210/1 49/211/1 21/212/1
f 22/213/1 53/214/1 78/215/1 50/216/1
f 53/217/1 16/218/1 32/219/1 78/220/1
f 54/221/1 79/222/1 48/223/1 20/224/1
f 23/225/1 57/226/1 79/227/1 54/228/1
f 57/229/1 19/230/1 35/231/1 79/232/1
f 58/233/1 80/234/1 41/235/1 13/236/1
f 24/237/1 61/238/1 80/239/1 58/240/1
f 61/241/1 18/242/1 34/243/1 80/244/1
f 62/245/1 81/246/1 45/247/1 17/248/1
f 25/249/1 65/250/1 81/251/1 62/252/1
f 65/253/1 12/254/1 28/255/1 81/256/1
